<svg height="92pt" viewBox="0 0 230 92" width="230pt" xmlns="http://www.w3.org/2000/svg"><path d="m142.65 8.63c8.78-4.82 21.01-3.72 27.94 3.82 5.09 5.38 6.09 14.15 2.43 20.56-2.03 2.93-4.76 5.29-6.8 8.22 2.82 1.14 5.81 2.3 7.85 4.67 4.97 5.16 4.41 13.88.13 19.29-3.42 4.26-8.05 7.33-11.75 11.33-2.65 2.75-4.86 5.88-7.26 8.84-6.72-3.84-14.36-6.57-22.13-6.8-2.94-.54-3.87 4.83-6.47 2.64 4.06-5.57 7.92-11.29 10.97-17.49-2.84-1.84-5.95-3.59-7.79-6.55-2.96-4.73-2.52-11.2.8-15.65 5.57-7.59 15.7-10.85 19.81-19.68 2.78 2.51 5.62 5.37 9.48 6.01 3.86.63 8.66-.81 10.33-4.64 1.64-3.91-.01-8.64-3.36-11.09-7.54-5.74-19.56-5.59-26.24 1.42-1.77 2.26-4.18 5.29-2.52 8.24 1.06 2.66 4.02 3.25 6.53 3.6-1.42.96-2.8 2.29-4.65 2.16-3.18-.21-5.59-3.38-5.19-6.49.25-5.16 3.37-9.96 7.89-12.41m-2.13 28.41c-.83 6.43 3.65 13.96 10.53 14.43 6.05-.21 10.68-5.06 13.61-9.94-7.89 2.97-16.27-.84-21.81-6.55-1.26-1.54-2.36.95-2.33 2.06m.38 24.91c-.65.63-1.54 2.88.16 2.63 8.2.38 15.77 3.94 22.71 8.07 2.93-6.5.61-16.27-6.8-18.5-6.4-1.66-12.59 2.75-16.07 7.8z" fill="#17a4c5"/><g fill="#312d2e"><path d="m1.95 26.79 4.8-.12c.04 1.6.09 3.2.13 4.8-1.62.04-3.25.08-4.87.1-.02-1.59-.03-3.19-.06-4.78z"/><path d="m88.47 26.62c9.24-2.28 19.69-.58 27.03 5.72 11.32 9.13 12.84 27.58 3.43 38.59-9.5 11.84-28.48 13.71-40.43 4.56-10.6-7.62-13.91-23.25-7.8-34.69 3.44-7.07 10.26-12.12 17.77-14.18m4 13.06c-6.04 1.82-10 8.18-9.5 14.39.14 7.27 6.47 14 13.94 13.58 7.99-.03 13.89-8.13 12.82-15.75-.4-8.29-9.22-14.83-17.26-12.22z"/><path d="m9.46 26.73h4.81c.01 7.52.02 15.03.01 22.55-1.61.01-3.22.01-4.83.01-.04-7.52 0-15.04.01-22.56z"/><path d="m19.76 26.76c7.73.01 15.47-.03 23.2.01 6.14.16 12.75 1.58 17.23 6.08 7.54 7.98 6.18 23.09-3.62 28.69-6.5 4.12-14.45 3.49-21.79 3.46.01 5.08.01 10.17.01 15.25-5.02.03-10.03.02-15.05.01-.01-17.83.01-35.67.02-53.5m14.97 12.74c.02 4.57.01 9.14.03 13.71 4.03-.21 8.44.79 12.14-1.22 4.22-2.36 4.14-9.49-.29-11.59-3.71-1.67-7.94-.65-11.88-.9z"/><path d="m180.22 26.84c15.59-.19 31.17-.03 46.76-.09-.04 4.41-.03 8.82 0 13.23-5.33-.02-10.67-.01-16-.01.03 13.43.02 26.86.02 40.3-4.93-.01-9.87.01-14.8-.02.01-13.43.04-26.85.07-40.28-5.35-.01-10.7.03-16.04-.03.05-4.37.09-8.74-.01-13.1z"/><path d="m2 32.42c1.62.04 3.25.08 4.87.13-.09 5.57 0 11.14-.01 16.71-1.62.01-3.24.03-4.86.04 0-5.63.01-11.25 0-16.88z"/></g></svg>